<svg xmlns="http://www.w3.org/2000/svg" viewBox="0 0 640 270" role="img" aria-labelledby="title desc">
  <title id="title">Fixing Spaces</title>
  <desc id="desc">Fixing Spaces logo with clip-art style hammer, wrench, tape measure, and hand saw icons in four colored squares.</desc>
  <g>
    <rect x="35" y="20" width="130" height="125" fill="#929d56"/>
    <rect x="173" y="20" width="130" height="125" fill="#605f50"/>
    <rect x="311" y="20" width="130" height="125" fill="#9a8968"/>
    <rect x="449" y="20" width="130" height="125" fill="#d6d0b7"/>
  </g>
  <g fill="#fff" stroke="#fff" stroke-linecap="round" stroke-linejoin="round">
    <!-- hammer clip art -->
    <path d="M73 110l12 12 46-46-12-12z" stroke-width="3"/>
    <path d="M91 52h40v14h-40zM77 57h14v5H77zM131 55h13v16h-13z" stroke-width="2"/>
    <!-- wrench clip art -->
    <path d="M210 48c15 0 25 12 25 25 0 6-2 11-5 15l38 38-17 17-38-38c-4 3-9 5-15 5-13 0-25-10-25-25 0-7 3-14 8-18l15 16 12-12z" stroke-width="3"/>
    <!-- tape measure clip art -->
    <path d="M343 57h65c8 0 14 6 14 14v44c0 8-6 14-14 14h-65c-8 0-14-6-14-14V71c0-8 6-14 14-14z" stroke-width="5"/>
    <circle cx="374" cy="93" r="15" fill="none" stroke-width="7"/>
    <path d="M396 57v14m-18-14v10m-18-10v10m-18-10v10M343 120h56" fill="none" stroke-width="5"/>
    <!-- hand saw clip art -->
    <path d="M474 113l62-62 19 19-62 62-30 8z" stroke-width="3"/>
    <path d="M478 110l11 11m6-24l11 11m6-24l11 11m6-24l11 11" fill="none" stroke-width="4"/>
    <path d="M539 48l16-16 19 19-16 16z" stroke-width="3"/>
  </g>
  <text x="307" y="223" text-anchor="middle" fill="#55564b" font-family="Arial, Helvetica, sans-serif" font-size="51" font-weight="400" letter-spacing="10">FIXING SPACES</text>
</svg>
